PathFileType	4	(X/Y/Z)	69_1_42_p0_0-321.trc
DataRate	CameraRate	NumFrames	NumMarkers	Units	OrigDataRate	OrigDataStartFrame	OrigNumFrames
59.0	59.0	6	27	m	59.0	201	322
Frame#	Time	RHip			RKnee			RAnkle			RBigToe			RSmallToe			RHeel			LHip			LKnee			LAnkle			LBigToe			LSmallToe			LHeel			Neck			Head			Nose			RShoulder			RElbow			RWrist			RThumb			RIndex			RPinky			LShoulder			LElbow			LWrist			LThumb			LIndex			LPinky			
		X1	Y1	Z1	X2	Y2	Z2	X3	Y3	Z3	X4	Y4	Z4	X5	Y5	Z5	X6	Y6	Z6	X7	Y7	Z7	X8	Y8	Z8	X9	Y9	Z9	X10	Y10	Z10	X11	Y11	Z11	X12	Y12	Z12	X13	Y13	Z13	X14	Y14	Z14	X15	Y15	Z15	X16	Y16	Z16	X17	Y17	Z17	X18	Y18	Z18	X19	Y19	Z19	X20	Y20	Z20	X21	Y21	Z21	X22	Y22	Z22	X23	Y23	Z23	X24	Y24	Z24	X25	Y25	Z25	X26	Y26	Z26	X27	Y27	Z27	
201	3.406779661016949	0.2475885945251185	0.5657810540097854	0.6843858294717582	0.24944896090435736	0.5637096411351223	0.9536999898218781	0.2057320778100544	0.6492594098543045	1.3687996876759911	0.2815542010692146	0.45745809047329944	1.3272941278371702	0.24808343125348328	0.526147708494514	1.3866657025647242	0.16014115977521354	0.6505548831933777	1.3957740053322156	0.06400695570846814	0.6667589206271407	0.5675224795352027	0.06159235433727503	0.5309746637945283	0.8801670296756027	0.021532554891078463	0.6083751049501914	1.2948862349567556	0.13919741642791705	0.458018229010553	1.383094367378956	0.03852747448079512	0.559347348330721	1.421499554939504	0.03032769675363708	0.5904082733953264	1.3947632112713004	0.2363485738841121	0.3166347387159941	0.5267061273275602	0.352661155161169	-0.07384166401038483	0.32227482716438594	0.28370468925852543	0.0773676997713024	0.5015880808679517	0.4104308206729215	0.2828383027322811	0.5247844268070575	0.4333832882016857	0.3043064372438691	0.759657164963275	0.39884671992173787	0.2031251014630695	0.9721456267167174	0.3321676875682166	0.17188474805246357	1.0848901278939853	0.36566595515289424	0.1553074571866933	1.1019488182124975	0.3935610123849385	0.19638132539381145	1.1074103602582681	0.11550085392878169	0.23825430723967506	0.4667848851527688	0.030643820775005142	0.2973280263960932	0.7429324333522728	0.10596243413579914	0.2313808802502783	0.9760715100055489	0.1886752068726436	0.17765960497375954	1.0570131070291098	0.13432330812865895	0.17535356998362342	1.0761765127011642	0.08550318338326798	0.2072261350348213	1.0851461085300274
202	3.4237288135593222	0.24869309351060062	0.567250336407116	0.699761801022035	0.2504783083159047	0.5642372972663795	0.962786311138937	0.21191311108072347	0.6498799516154459	1.368144230736558	0.2815542010692146	0.45745809047329944	1.3272941278371702	0.24808343125348328	0.526147708494514	1.3866657025647242	0.16014115977521354	0.6505548831933777	1.3957740053322156	0.07636110665390311	0.6556544275975087	0.558636172603613	0.06354980907474825	0.532644718292805	0.8837128529477515	0.008209450983575908	0.6220077801112817	1.3148446679996935	0.13919741642791705	0.458018229010553	1.383094367378956	0.03852747448079512	0.559347348330721	1.421499554939504	0.03032769675363708	0.5904082733953264	1.3947632112713004	0.23664581548219937	0.31643951416735483	0.5283482701444793	0.34641667254516106	-0.06796067273631637	0.32435532980264187	0.27607587998057576	0.0844762967857967	0.5006291224204052	0.4103695331441849	0.2816572474412963	0.5323876167947349	0.43262238298916966	0.30539358929164095	0.767850002609029	0.3979100777973747	0.20306887998371156	0.9757569917332191	0.3272790516345074	0.169745915550253	1.0882525987067273	0.36481052545128895	0.15488486140786412	1.1055108244079943	0.3911086617453365	0.20274298146096617	1.1146278288024056	0.11753852008724341	0.2292293613376768	0.4590826764314153	0.03095867836927047	0.29788637052193134	0.7338678142105629	0.10323932386135747	0.22998431324028806	0.9683464542539695	0.1875843391060025	0.17725991902319363	1.060676081373686	0.12547956824746256	0.18437876710636864	1.0818283399275346	0.08547042442188636	0.20535635378117492	1.0804404137377035
203	3.440677966101695	0.2611375682662824	0.5851748021713491	0.6821520044874867	0.25026749782997026	0.5571839792528325	0.9719509438599238	0.21809414435139257	0.6505004933765871	1.367488773797125	0.2815542010692146	0.45745809047329944	1.3272941278371702	0.24808343125348328	0.526147708494514	1.3866657025647242	0.16014115977521354	0.6505548831933777	1.3957740053322156	0.07585408582432814	0.6551603505350544	0.5636291610409109	0.0644613980539219	0.5344066840489046	0.8914692469453773	-0.005113652923926654	0.6356404552723718	1.3348031010426311	0.13919741642791705	0.458018229010553	1.383094367378956	0.03852747448079512	0.559347348330721	1.421499554939504	0.03032769675363708	0.5904082733953264	1.3947632112713004	0.23463175009431642	0.31677529669985033	0.5211153635760554	0.3426392780910115	-0.0677570337523915	0.33685515682954253	0.2761642751714924	0.08545783927121998	0.5040706214007755	0.4100365559922989	0.28036887169347213	0.528171134011748	0.4248335678623444	0.3137370624151368	0.7589119309587493	0.39921138982665455	0.2049659274149488	0.9767999107337506	0.34734737496513357	0.16122975503633505	1.072173391123444	0.3729061614640685	0.15584607234991976	1.1047557458497834	0.3915305359520932	0.2139233160429887	1.1119990098620811	0.11397592174322416	0.25138047883840425	0.46068222733859715	0.030824565877409494	0.2966877540467375	0.724589065002747	0.10230031310503439	0.22917195103887805	0.9593242448777187	0.1803159142298449	0.17598776105534442	1.0596869982568664	0.11699196559291	0.1840074737327565	1.0788094034656066	0.06674504078706829	0.22683277552768408	1.0933863224397127
204	3.457627118644068	0.26332631512596266	0.6061860928955646	0.6810641300129682	0.2532101882701902	0.5737773480692155	0.9668531467969604	0.22427517762206162	0.6511210351377285	1.366833316857692	0.2815542010692146	0.45745809047329944	1.3272941278371702	0.24808343125348328	0.526147708494514	1.3866657025647242	0.16014115977521354	0.6505548831933777	1.3957740053322156	0.08808029922519786	0.6439828361418544	0.5598369018846021	0.07500553075601502	0.5206105572721345	0.8688933611316262	-0.018436756831429216	0.649273130433462	1.3547615340855688	0.13919741642791705	0.458018229010553	1.383094367378956	0.03852747448079512	0.559347348330721	1.421499554939504	0.03032769675363708	0.5904082733953264	1.3947632112713004	0.23673047119732496	0.32961234613445145	0.5188686750267699	0.34354613060306943	-0.06777296832875782	0.33319397302903275	0.27466919769203113	0.09462118839650996	0.5041548683569687	0.4091850696699885	0.28184017777918696	0.521774033308325	0.42407428856309043	0.31514195581760335	0.7670841542802139	0.3898143238793914	0.21543237608163943	0.986676179444446	0.3538616492954497	0.1545695325145816	1.0756203083762708	0.37568791899868575	0.16050491259322983	1.1072026515987599	0.39451660330399013	0.1971987085914439	1.110563387465023	0.11272315903565215	0.26191952630034815	0.4717883895244748	0.030275208201664457	0.29862268984444795	0.7298180099858618	0.10435042620993011	0.21526762910454642	0.9522149266347196	0.179925254373815	0.17629825757166162	1.0593110913768733	0.10656286570237858	0.204178430657101	1.089690446190759	0.059320634452770825	0.22892157928582688	1.0923134560855152
205	3.4745762711864407	0.2602882571786672	0.5827521938750043	0.6794657733482523	0.25204145019932195	0.589420622551842	0.9737282617656988	0.23045621089273072	0.6517415768988698	1.3661778599182592	0.2815542010692146	0.45745809047329944	1.3272941278371702	0.24808343125348328	0.526147708494514	1.3866657025647242	0.16014115977521354	0.6505548831933777	1.3957740053322156	0.08734938651189761	0.6430314539016873	0.5650365009551861	0.0736626830677482	0.5194398899451558	0.8747737295228587	-0.031759860738931764	0.6629058055945523	1.3747199671285064	0.13919741642791705	0.458018229010553	1.383094367378956	0.03852747448079512	0.559347348330721	1.421499554939504	0.03032769675363708	0.5904082733953264	1.3947632112713004	0.23412474139790257	0.3257864653180198	0.527057398571654	0.34317605305143783	-0.06749203488747334	0.3310023127862001	0.2746847132563142	0.09506031605167391	0.49966793926229663	0.4091987535064803	0.280366569780274	0.5183681947441855	0.42991593443528003	0.3038207187205818	0.7627507728291908	0.38997543604823776	0.21564684120666017	0.9867919606201577	0.33822450853617353	0.17492918969354368	1.0889348823238565	0.37797762509504734	0.16409790695871826	1.1085630388675196	0.4016553288301999	0.19621047262305333	1.1054643476894084	0.11337009411867048	0.2598972038863552	0.4653640029201686	0.03077075571716047	0.2949183760233837	0.7247559414011565	0.10440761093558927	0.21349086132722273	0.9467841429995025	0.1705992068829829	0.1851315582952501	1.0572863305467959	0.1073663117135163	0.20413668466059567	1.0858676952257509	0.04882332655713658	0.22538189260653324	1.0963333509042381
206	3.4915254237288136	0.26279404747145413	0.6271177233825718	0.6690935680454488	0.2569002975806525	0.5932314546650266	0.9505429002931305	0.2366372441633998	0.6523621186600111	1.3655224029788262	0.2815542010692146	0.45745809047329944	1.3272941278371702	0.24808343125348328	0.526147708494514	1.3866657025647242	0.16014115977521354	0.6505548831933777	1.3957740053322156	0.07469360625614041	0.6538905109333787	0.5609318990218789	0.06161350557211286	0.5312745807561741	0.8773799567697473	-0.045082964646434326	0.6765384807556424	1.394678400171444	0.13919741642791705	0.458018229010553	1.383094367378956	0.03852747448079512	0.559347348330721	1.421499554939504	0.03032769675363708	0.5904082733953264	1.3947632112713004	0.23579257822024374	0.3310387386683087	0.5161435821154584	0.3442826475018301	-0.06789799827335251	0.33020755663282203	0.2761472915297611	0.09486257277631727	0.5020847227641085	0.40863302574246513	0.28098788808746494	0.5150576750609485	0.4300183836532054	0.30323395925979707	0.7638705773901541	0.38969069223450975	0.21591244846407484	0.9869539733778367	0.35449273139164256	0.16376504509434178	1.08440631792477	0.38200546080474596	0.16601947357580493	1.113166021778975	0.397759775086003	0.20978597186268427	1.120882561389078	0.11050354920326096	0.25523897287556463	0.46470865141241735	0.03116043632190347	0.29392176428026423	0.7232111164003296	0.0950137072794312	0.22402583836291437	0.9486134984391812	0.1705411699764235	0.1857256396263681	1.0562697996015962	0.10783008808578996	0.19295491173075469	1.083436243718621	0.048445559273492665	0.22258809123686832	1.0874693865116234
